<svg width="64" height="64" viewBox="0 0 64 64" fill="none" xmlns="http://www.w3.org/2000/svg">
<rect width="64" height="64" rx="32" fill="#575853"/>
<rect x="0.5" y="0.5" width="63" height="63" rx="31.5" stroke="black" stroke-opacity="0.04"/>
<path d="M31.7598 17.0374C31.9106 16.9839 32.1169 16.9896 32.2686 17.0432C36.3954 18.5201 40.5177 20.0096 44.6455 21.4856C44.9103 21.5804 45.0009 21.6962 45 21.9788C44.9892 25.2348 44.9762 28.4922 44.9961 31.7483C45.0294 37.227 42.5368 41.3274 38.0176 44.3225C36.2573 45.4892 34.3567 46.3752 32.3145 46.9465C32.1482 46.993 31.9462 47.0241 31.7871 46.9758C27.6728 45.7358 24.1194 43.6553 21.5557 40.1516C19.8658 37.8431 19.0699 35.2239 19.0166 32.387C18.985 30.7258 19.0107 29.0637 19.0107 27.4016H19.0078L19.0068 27.4036C19.0068 25.5743 19.0117 23.7446 19 21.9163C18.9983 21.6858 19.073 21.5898 19.2871 21.5129C23.4458 20.0234 27.6011 18.5242 31.7598 17.0374ZM36.9863 27.1194C36.4787 26.9777 36.0613 27.1537 35.6934 27.5325C33.9935 29.2793 32.2849 31.0153 30.583 32.759C30.4775 32.8668 30.4071 33.0119 30.3096 33.1545C29.4943 32.3221 28.7594 31.5679 28.0215 30.8176C27.4475 30.2337 26.7264 30.1921 26.2178 30.7063C25.7092 31.2205 25.7447 31.9683 26.3096 32.5471C27.2846 33.5457 28.2622 34.5428 29.2393 35.5393C29.9309 36.2444 30.5692 36.2471 31.2568 35.5461C32.9276 33.8423 34.5968 32.1377 36.2666 30.4329C36.6838 30.007 37.1125 29.5908 37.5166 29.1526C38.1519 28.4639 37.8649 27.3657 36.9863 27.1194Z" fill="#FFFF23"/>
</svg>
